<svg xmlns="http://www.w3.org/2000/svg" width="65" height="28" viewBox="0 0 65 28">
    <g fill="none" fill-rule="evenodd">
        <g>
            <g>
                <g>
                    <g>
                        <g fill="#F43142">
                            <path d="M7.539 0L0 5.94 0 9.263 3.306 9.263 3.306 9.263 6.97 6.391 6.97 27.397 7.507 27.935 7.516 27.944 7.516 27.944 11.07 27.944 11.07 27.944 11.614 27.396 11.614.548 11.068.001zM35.38 0L34.844.539 34.836.548 34.836 4.121 35.381 4.667 48.794 4.667 58.052 13.972 48.794 23.277 27.87 23.277 27.87.548 27.325.001 23.796 0 16.257 5.94 16.257 9.263 19.563 9.263 23.227 6.391 23.227 27.397 23.764 27.935 23.772 27.944 27.327 27.944 50.718 27.944 64.618 13.972 50.718 0z" transform="translate(-263 -47) translate(263 35) translate(0 2) translate(0 10)"/>
                        </g>
                    </g>
                </g>
            </g>
        </g>
    </g>
</svg>
